<?xml version="1.0" encoding="UTF-8" standalone="no"?>
<!-- Created with Inkscape (http://www.inkscape.org/) -->

<svg
   xmlns:dc="http://purl.org/dc/elements/1.1/"
   xmlns:cc="http://creativecommons.org/ns#"
   xmlns:rdf="http://www.w3.org/1999/02/22-rdf-syntax-ns#"
   xmlns:svg="http://www.w3.org/2000/svg"
   xmlns="http://www.w3.org/2000/svg"
   xmlns:sodipodi="http://sodipodi.sourceforge.net/DTD/sodipodi-0.dtd"
   xmlns:inkscape="http://www.inkscape.org/namespaces/inkscape"
   width="128"
   height="128"
   viewBox="0 0 33.866666 33.866668"
   version="1.1"
   id="svg8"
   inkscape:version="0.92.3 (2405546, 2018-03-11)"
   sodipodi:docname="floss.svg"
   inkscape:export-filename="/home/jacob/Projects/Floss/floss.png"
   inkscape:export-xdpi="96"
   inkscape:export-ydpi="96">
  <defs
     id="defs2" />
  <sodipodi:namedview
     id="base"
     pagecolor="#ffffff"
     bordercolor="#666666"
     borderopacity="1.0"
     inkscape:pageopacity="0.0"
     inkscape:pageshadow="2"
     inkscape:zoom="2.8"
     inkscape:cx="25.323562"
     inkscape:cy="57.202302"
     inkscape:document-units="mm"
     inkscape:current-layer="layer1"
     showgrid="false"
     inkscape:window-width="1299"
     inkscape:window-height="713"
     inkscape:window-x="67"
     inkscape:window-y="27"
     inkscape:window-maximized="1"
     units="px" />
  <metadata
     id="metadata5">
    <rdf:RDF>
      <cc:Work
         rdf:about="">
        <dc:format>image/svg+xml</dc:format>
        <dc:type
           rdf:resource="http://purl.org/dc/dcmitype/StillImage" />
        <dc:title />
      </cc:Work>
    </rdf:RDF>
  </metadata>
  <g
     inkscape:label="Layer 1"
     inkscape:groupmode="layer"
     id="layer1"
     transform="translate(0,-263.16667)">
    <path
       style="fill:#b3b3b3;stroke:none;stroke-width:0.26458332px;stroke-linecap:butt;stroke-linejoin:miter;stroke-opacity:1"
       d="m 25.068258,294.72804 c 2.820461,-2.31347 5.207792,-6.25198 5.358823,-9.69545 -3.592158,-0.58185 -5.65625,-0.0101 -8.882439,0.56697"
       id="path911"
       inkscape:connector-curvature="0"
       sodipodi:nodetypes="ccc" />
    <path
       style="fill:#eff5ff;stroke:#76adff;stroke-width:0.585;stroke-linecap:butt;stroke-linejoin:miter;stroke-miterlimit:4;stroke-dasharray:none;stroke-opacity:1;fill-opacity:0.98984772"
       d="m 10.536086,270.73467 -1.8254746,0.62587 -0.7301894,-0.0522 c -4.3263293,0.87336 -1.609036,6.02322 -2.3470384,9.07521 -0.7310574,1.66901 -0.7820697,3.33801 -0.8345023,5.00702 l 0.1043127,4.95485 c -0.01849,2.29481 0.576209,3.75345 2.0862561,3.96389 l 13.4041949,1.98194 c 1.38351,0.63134 2.528016,0.30666 3.494479,-0.73019 0.93468,-0.56047 1.603572,-1.38672 1.981943,-2.5035 l -0.573719,-19.24572 c -0.31064,-0.99766 -0.872801,-1.6432 -1.877632,-1.669 z"
       id="path3805"
       inkscape:connector-curvature="0"
       sodipodi:nodetypes="ccccccccccccc" />
    <path
       style="fill:#aaccff;stroke:#76adff;stroke-width:0.39029068;stroke-linecap:butt;stroke-linejoin:miter;stroke-miterlimit:4;stroke-dasharray:none;stroke-opacity:1"
       d="m 8.7106114,271.36054 c 5.4619266,9.41333 7.1920156,0.47572 8.8144316,1.30391"
       id="path4612"
       inkscape:connector-curvature="0"
       sodipodi:nodetypes="cc" />
    <path
       style="fill:none;stroke:#76adff;stroke-width:0.39029068;stroke-linecap:round;stroke-linejoin:miter;stroke-miterlimit:4;stroke-dasharray:none;stroke-opacity:1"
       d="m 7.5110139,273.75974 c 5.9784401,6.40683 7.4755551,0.23316 10.0140291,-1.09529"
       id="path4614"
       inkscape:connector-curvature="0"
       sodipodi:nodetypes="cc" />
    <g
       id="g4643"
       transform="matrix(0.19514534,0,0,0.19514534,1.5983578,255.33947)">
      <ellipse
         style="fill:#ffffff;stroke:#002255;stroke-width:0.96417654;stroke-linecap:round;stroke-miterlimit:4;stroke-dasharray:none"
         id="ellipse4637"
         cx="53.595139"
         cy="165.77364"
         rx="14.437785"
         ry="13.879646" />
      <ellipse
         ry="12.326605"
         rx="12.763065"
         cy="165.83102"
         cx="53.71986"
         id="ellipse4635"
         style="fill:#ffffff;stroke:#002255;stroke-width:1;stroke-linecap:round;stroke-miterlimit:4;stroke-dasharray:none" />
      <ellipse
         style="fill:#ffffff;stroke:#002255;stroke-width:1;stroke-linecap:round;stroke-miterlimit:4;stroke-dasharray:none"
         id="ellipse4633"
         cx="53.530872"
         cy="166.07849"
         rx="11.052818"
         ry="10.674843" />
      <ellipse
         ry="9.28193"
         rx="9.6126595"
         cy="166.31473"
         cx="53.247395"
         id="path4631"
         style="fill:#ffffff;stroke:#002255;stroke-width:1;stroke-linecap:round;stroke-miterlimit:4;stroke-dasharray:none" />
    </g>
    <path
       style="fill:none;stroke:#002255;stroke-width:0.19514534;stroke-linecap:butt;stroke-linejoin:miter;stroke-miterlimit:4;stroke-dasharray:none;stroke-opacity:1"
       d="m 10.919702,285.20951 1.595179,-0.69682 c 2.516949,0.26267 2.573709,1.41996 3.024172,2.43409"
       id="path4645"
       inkscape:connector-curvature="0"
       sodipodi:nodetypes="ccc" />
    <rect
       style="opacity:1;fill:#eff5ff;fill-opacity:1;stroke:none;stroke-width:0.06422285;stroke-linecap:round;stroke-miterlimit:4;stroke-dasharray:none;stroke-opacity:1"
       id="rect4694"
       width="7.025569"
       height="4.7822132"
       x="31.994152"
       y="284.58438"
       transform="matrix(0.9966241,0.08209994,-0.08203424,0.99662951,0,0)" />
    <path
       style="fill:none;stroke:#002255;stroke-width:0.19514534;stroke-linecap:butt;stroke-linejoin:miter;stroke-miterlimit:4;stroke-dasharray:none;stroke-opacity:1"
       d="m 14.174488,285.87725 c -1.978304,-2.77231 -4.104954,-4.5057 -5.6057826,-7.26539"
       id="path4647"
       inkscape:connector-curvature="0"
       sodipodi:nodetypes="cc" />
    <path
       style="opacity:0.8;fill:none;stroke:#d7e3f4;stroke-width:0.78058136;stroke-linecap:butt;stroke-linejoin:miter;stroke-miterlimit:4;stroke-dasharray:none;stroke-opacity:1"
       d="m 8.6142382,286.25191 5.1176878,-7.78757"
       id="path4696"
       inkscape:connector-curvature="0" />
    <path
       style="fill:none;stroke:#002255;stroke-width:0.19514534;stroke-linecap:butt;stroke-linejoin:miter;stroke-miterlimit:4;stroke-dasharray:none;stroke-opacity:1"
       d="m 15.539053,286.94678 c -2.106751,-3.27203 -4.604399,-5.57674 -6.2696248,-8.59308"
       id="path4649"
       inkscape:connector-curvature="0"
       sodipodi:nodetypes="cc" />
    <path
       inkscape:connector-curvature="0"
       id="path4698"
       d="m 9.3887213,286.43631 5.1176877,-7.78757"
       style="opacity:0.8;fill:none;stroke:#afc6e9;stroke-width:0.78058136;stroke-linecap:butt;stroke-linejoin:miter;stroke-miterlimit:4;stroke-dasharray:none;stroke-opacity:1" />
    <path
       style="fill:#5599ff;stroke:#aaccff;stroke-width:0.31868112;stroke-linecap:butt;stroke-linejoin:miter;stroke-miterlimit:4;stroke-dasharray:none;stroke-opacity:1"
       d="m 13.935838,285.08504 -0.536587,-0.65067"
       id="path4661"
       inkscape:connector-curvature="0"
       sodipodi:nodetypes="cc" />
    <path
       style="opacity:0.8;fill:none;stroke:#d5e5ff;stroke-width:0.78058136;stroke-linecap:butt;stroke-linejoin:miter;stroke-miterlimit:4;stroke-dasharray:none;stroke-opacity:1"
       d="m 10.200085,286.58383 5.117687,-7.78757"
       id="path4700"
       inkscape:connector-curvature="0" />
    <rect
       style="fill:#aaccff;fill-opacity:0.3475936;stroke:#76adff;stroke-width:0.53507066;stroke-linecap:round;stroke-miterlimit:4;stroke-dasharray:none;stroke-opacity:1"
       id="rect4616"
       width="10.878449"
       height="8.6299629"
       x="-1.5601684"
       y="277.98941"
       ry="2.2286167"
       transform="matrix(0.99711766,0.07587076,0.03020978,0.99954358,0,0)" />
    <rect
       transform="matrix(0.99711766,0.07587076,0.03020978,0.99954358,0,0)"
       ry="2.1051991"
       y="278.27148"
       x="-1.2678601"
       height="8.1520481"
       width="10.276016"
       id="rect4620"
       style="fill:#aaccff;fill-opacity:0.3475936;stroke:#a4c8ff;stroke-width:0.50543922;stroke-linecap:round;stroke-miterlimit:4;stroke-dasharray:none;stroke-opacity:1" />
    <g
       id="g852"
       transform="matrix(0.08073961,0,-0.02589749,0.08073961,0.35891235,274.84997)"
       style="fill:#92bdff;stroke:#005eec;stroke-width:0.62918395;stroke-miterlimit:4;stroke-dasharray:none;stroke-opacity:1;fill-opacity:1">
      <g
         id="text4707"
         style="font-style:normal;font-weight:normal;font-size:89.37128448px;line-height:1.25;font-family:sans-serif;letter-spacing:0px;word-spacing:0px;fill:#92bdff;fill-opacity:1;stroke:#005eec;stroke-width:0.62918395;stroke-miterlimit:4;stroke-dasharray:none;stroke-opacity:1"
         aria-label="Floss">
        <path
           id="path835"
           style="font-style:normal;font-variant:normal;font-weight:normal;font-stretch:normal;font-family:Cookie;-inkscape-font-specification:Cookie;fill:#92bdff;stroke:#005eec;stroke-width:0.62918395;stroke-miterlimit:4;stroke-dasharray:none;stroke-opacity:1;fill-opacity:1"
           d="m 159.6966,185.13958 0.89371,4.20045 q 0,1.51931 -1.07245,2.50239 -1.07246,0.98309 -2.5024,0.98309 -1.42994,0 -2.14491,-1.34057 -0.6256,-1.34057 -0.6256,-2.94925 0,-4.82605 4.11108,-8.66902 4.20045,-3.93233 9.47336,-3.93233 h 0.53623 q 1.78742,-6.79222 5.36227,-6.79222 1.07246,0 1.07246,2.85988 0,0.53623 -0.26811,4.28982 1.34056,0.17874 3.12799,0.44686 4.20045,0.6256 6.97096,0.6256 2.85988,0 5.71976,-0.89372 2.94926,-0.98308 3.93234,-0.98308 2.5024,0 2.5024,2.59177 0,2.50239 -2.68114,3.84296 -2.68114,1.2512 -7.77531,1.2512 -5.09416,0 -12.4226,-2.32365 -1.07246,6.16661 -1.2512,9.29461 -0.17874,3.12799 -0.35749,9.29461 3.7536,-0.17874 10.36707,-0.17874 1.16183,0 1.96617,0.89371 0.89371,0.89372 0.89371,1.8768 0,0.98308 -0.6256,1.60868 -0.62559,0.6256 -1.34056,0.6256 l -11.35016,-0.6256 q -0.35748,8.75839 -0.6256,11.88638 -0.17874,3.128 -1.69805,5.80914 -1.51931,2.68114 -3.57485,2.68114 -1.16183,0 -2.59177,-1.2512 -1.34057,-1.16183 -1.34057,-2.23428 0,-1.07246 0.26811,-1.60869 0.35749,-0.6256 0.71497,-1.16182 0.44686,-0.6256 0.6256,-0.98309 1.07246,-2.32365 1.96617,-12.78009 l -3.48548,0.44686 q -0.71497,0 -1.16182,-0.44686 -0.44686,-0.53623 -0.44686,-1.16183 0,-0.71497 0.26811,-1.2512 0.26812,-0.53622 1.07246,-0.80434 0.80434,-0.35748 1.16182,-0.44685 1.42995,-0.35749 2.85989,-0.35749 0.17874,-2.14491 0.44685,-9.29461 0.35749,-7.14971 0.98309,-11.17141 -0.53623,-0.0894 -1.60869,-0.0894 -6.34536,0 -6.34536,5.71976 z"
           inkscape:connector-curvature="0" />
        <path
           id="path837"
           style="font-style:normal;font-variant:normal;font-weight:normal;font-stretch:normal;font-family:Cookie;-inkscape-font-specification:Cookie;fill:#92bdff;stroke:#005eec;stroke-width:0.62918395;stroke-miterlimit:4;stroke-dasharray:none;stroke-opacity:1;fill-opacity:1"
           d="m 196.53572,221.42432 q -1.96616,0 -3.66422,-0.44686 -1.60868,-0.53622 -1.96617,-0.98308 -0.89371,-1.07246 -0.89371,-11.08204 0,-10.09896 2.23428,-27.34761 1.8768,-14.21004 8.75839,-14.21004 1.60868,0 2.32365,1.78743 0.71497,1.69805 0.71497,3.30674 0,11.61826 -7.06033,26.00704 -0.26811,7.41782 -0.26811,12.95884 0,5.45164 0.98308,5.45164 1.51931,-0.0894 4.20045,-3.75359 2.68114,-3.75359 5.27291,-9.56273 2.68113,-5.80913 3.21736,-5.80913 0.6256,0 0.6256,0.71497 0,2.5024 -2.59177,7.95404 -7.06033,15.01438 -11.88638,15.01438 z m 5.27291,-48.17112 q 0,-2.85988 -0.71497,-2.85988 -2.68114,0 -3.93234,22.25345 4.64731,-12.24387 4.64731,-19.39357 z"
           inkscape:connector-curvature="0" />
        <path
           id="path839"
           style="font-style:normal;font-variant:normal;font-weight:normal;font-stretch:normal;font-family:Cookie;-inkscape-font-specification:Cookie;fill:#92bdff;stroke:#005eec;stroke-width:0.62918395;stroke-miterlimit:4;stroke-dasharray:none;stroke-opacity:1;fill-opacity:1"
           d="m 233.69463,201.58389 q 3.57485,-1.16182 4.91542,-1.96616 1.42994,-0.89372 2.14491,-1.34057 l 1.07246,-0.6256 q 0.44685,-0.26812 0.71497,-0.26812 0.71497,0 0.71497,0.80435 0,0.80434 -2.77051,2.85988 -2.77051,1.96616 -6.88159,3.57485 -0.6256,7.50719 -4.73668,12.15449 -4.11108,4.64731 -11.70764,4.64731 -5.54102,0 -8.49027,-4.37919 -2.94925,-4.46857 -2.94925,-10.36707 0,-5.98788 3.48548,-11.26078 3.57485,-5.27291 9.11587,-5.27291 2.50239,-1.78743 5.8985,-1.78743 3.48548,0 6.43473,3.66423 2.94926,3.66422 3.03863,9.56272 z m -5.80913,4.55794 -3.21737,0.17874 q -4.11108,0 -6.97096,-2.41302 -2.85988,-2.5024 -2.85988,-5.45165 0,-2.94925 0.98308,-5.09416 -3.84296,3.03862 -3.84296,11.97575 0,4.28982 1.78742,8.22216 1.78743,3.84296 5.63039,3.84296 3.84297,0 5.98788,-3.21736 2.14491,-3.30674 2.5024,-8.04342 z m -5.54102,-14.83563 q -1.42995,0 -2.23429,1.34057 -0.80434,1.25119 -0.80434,2.77051 0,3.30673 2.23428,5.36227 2.32366,2.05554 5.36228,2.05554 h 1.07246 q -0.17875,-4.37919 -1.51932,-7.95404 -1.25119,-3.57485 -4.11107,-3.57485 z"
           inkscape:connector-curvature="0" />
        <path
           id="path841"
           style="font-style:normal;font-variant:normal;font-weight:normal;font-stretch:normal;font-family:Cookie;-inkscape-font-specification:Cookie;fill:#92bdff;stroke:#005eec;stroke-width:0.62918395;stroke-miterlimit:4;stroke-dasharray:none;stroke-opacity:1;fill-opacity:1"
           d="m 251.41527,193.62985 0.17875,-1.34057 q 0,-1.60868 -1.8768,-1.60868 -1.78743,0 -3.48548,2.41302 -1.69805,2.32366 -1.69805,3.84297 0,1.51931 0.17874,2.41302 0.17874,0.89371 0.35748,1.51931 0.26812,0.53623 0.80434,1.34057 0.53623,0.80434 0.80435,1.16183 l 0.98308,1.2512 q 0.6256,0.89371 0.89371,1.16182 4.64731,-3.84296 11.08204,-8.57964 0.35749,-0.26811 0.80434,-0.26811 0.89372,0 0.89372,0.98308 0,0.98309 -0.80434,1.51931 -5.71977,3.66423 -10.81393,7.95405 1.96617,2.85988 1.96617,6.25599 0,3.39611 -2.59177,5.80913 -2.59177,2.41303 -6.61347,2.41303 -4.02171,0 -4.02171,-3.84297 0,-2.77051 5.8985,-8.49027 -0.44685,-0.53623 -1.60868,-1.69806 -1.16183,-1.25119 -1.78743,-1.96616 -0.53622,-0.71497 -1.34057,-1.8768 -1.42994,-2.23428 -1.42994,-4.82605 0,-5.27291 3.39611,-8.49027 3.39611,-3.30674 7.23908,-3.30674 2.41302,0 3.75359,1.34057 1.34057,1.2512 1.34057,2.59177 0,3.03862 -1.42994,3.03862 -1.07246,0 -1.07246,-0.71497 z m -5.71976,17.60614 q -3.57485,3.57485 -3.57485,5.80914 0,2.14491 2.23428,2.14491 1.34057,0 2.23428,-1.07246 1.96617,-2.68114 -0.89371,-6.88159 z"
           inkscape:connector-curvature="0" />
        <path
           id="path843"
           style="font-style:normal;font-variant:normal;font-weight:normal;font-stretch:normal;font-family:Cookie;-inkscape-font-specification:Cookie;fill:#92bdff;stroke:#005eec;stroke-width:0.62918395;stroke-miterlimit:4;stroke-dasharray:none;stroke-opacity:1;fill-opacity:1"
           d="m 270.09248,193.62985 0.17874,-1.34057 q 0,-1.60868 -1.87679,-1.60868 -1.78743,0 -3.48548,2.41302 -1.69806,2.32366 -1.69806,3.84297 0,1.51931 0.17875,2.41302 0.17874,0.89371 0.35748,1.51931 0.26811,0.53623 0.80434,1.34057 0.53623,0.80434 0.80434,1.16183 l 0.98309,1.2512 q 0.6256,0.89371 0.89371,1.16182 4.64731,-3.84296 11.08204,-8.57964 0.35749,-0.26811 0.80434,-0.26811 0.89371,0 0.89371,0.98308 0,0.98309 -0.80434,1.51931 -5.71976,3.66423 -10.81392,7.95405 1.96617,2.85988 1.96617,6.25599 0,3.39611 -2.59177,5.80913 -2.59177,2.41303 -6.61348,2.41303 -4.0217,0 -4.0217,-3.84297 0,-2.77051 5.8985,-8.49027 -0.44686,-0.53623 -1.60868,-1.69806 -1.16183,-1.25119 -1.78743,-1.96616 -0.53623,-0.71497 -1.34057,-1.8768 -1.42994,-2.23428 -1.42994,-4.82605 0,-5.27291 3.39611,-8.49027 3.39611,-3.30674 7.23907,-3.30674 2.41303,0 3.7536,1.34057 1.34057,1.2512 1.34057,2.59177 0,3.03862 -1.42994,3.03862 -1.07246,0 -1.07246,-0.71497 z m -5.71976,17.60614 q -3.57485,3.57485 -3.57485,5.80914 0,2.14491 2.23428,2.14491 1.34057,0 2.23428,-1.07246 1.96617,-2.68114 -0.89371,-6.88159 z"
           inkscape:connector-curvature="0" />
      </g>
    </g>
    <path
       style="fill:#eff5ff;stroke:#76adff;stroke-width:0.58543605;stroke-linecap:butt;stroke-linejoin:miter;stroke-miterlimit:4;stroke-dasharray:none;stroke-opacity:1;fill-opacity:0.9137255"
       d="m 23.418716,272.14289 c 2.058856,-0.71545 3.606555,-2.45321 4.276825,-5.94583 -10.552281,-3.60372 -12.209473,-2.37878 -18.3590529,-0.31294 -1.0954751,2.07682 -1.4653098,3.84264 -0.616523,5.0862 l -0.018675,0.78058"
       id="path862"
       inkscape:connector-curvature="0"
       sodipodi:nodetypes="ccccc" />
    <path
       style="fill:none;stroke:#76adff;stroke-width:0.58543605;stroke-linecap:butt;stroke-linejoin:miter;stroke-miterlimit:4;stroke-dasharray:none;stroke-opacity:1"
       d="m 9.3364881,265.88412 c 2.0030579,0.5278 3.4573059,2.62301 3.1962309,4.31217 -0.547576,1.17637 -3.2367672,1.07525 -3.8221076,1.16425"
       id="path870"
       inkscape:connector-curvature="0"
       sodipodi:nodetypes="ccc" />
    <path
       style="fill:#eff5ff;stroke:#76adff;stroke-width:0.58543605;stroke-linecap:butt;stroke-linejoin:miter;stroke-miterlimit:4;stroke-dasharray:none;stroke-opacity:1;fill-opacity:0.98477155"
       d="m 23.418716,272.14289 3.859575,0.52156 c 1.238812,-1.70286 1.664562,-3.90393 0.621469,-6.37488 -0.04258,-0.10086 -0.742208,-0.20238 -0.78969,-0.30457"
       id="path864"
       inkscape:connector-curvature="0"
       sodipodi:nodetypes="ccsc" />
    <path
       style="fill:none;stroke:#76adff;stroke-width:0.58543605;stroke-linecap:butt;stroke-linejoin:miter;stroke-miterlimit:4;stroke-dasharray:none;stroke-opacity:1"
       d="m 27.639237,265.985 c -0.821921,2.40032 -1.907505,4.38196 -3.691354,6.15789"
       id="path872"
       inkscape:connector-curvature="0"
       sodipodi:nodetypes="cc" />
    <path
       style="color:#000000;font-style:normal;font-variant:normal;font-weight:normal;font-stretch:normal;font-size:medium;line-height:normal;font-family:sans-serif;font-variant-ligatures:normal;font-variant-position:normal;font-variant-caps:normal;font-variant-numeric:normal;font-variant-alternates:normal;font-feature-settings:normal;text-indent:0;text-align:start;text-decoration:none;text-decoration-line:none;text-decoration-style:solid;text-decoration-color:#000000;letter-spacing:normal;word-spacing:normal;text-transform:none;writing-mode:lr-tb;direction:ltr;text-orientation:mixed;dominant-baseline:auto;baseline-shift:baseline;text-anchor:start;white-space:normal;shape-padding:0;clip-rule:nonzero;display:inline;overflow:visible;visibility:visible;opacity:1;isolation:auto;mix-blend-mode:normal;color-interpolation:sRGB;color-interpolation-filters:linearRGB;solid-color:#000000;solid-opacity:1;vector-effect:none;fill:#d5e5ff;fill-opacity:1;fill-rule:nonzero;stroke:#5599ff;stroke-width:0.19514534;stroke-linecap:butt;stroke-linejoin:miter;stroke-miterlimit:4;stroke-dasharray:none;stroke-dashoffset:0;stroke-opacity:1;color-rendering:auto;image-rendering:auto;shape-rendering:auto;text-rendering:auto;enable-background:accumulate"
       d="m 7.980422,271.30839 -0.895981,0.65114 c 4.421182,0.80038 8.427477,-0.22284 13.795518,0.078 4.271613,0.0989 7.29103,3.11699 9.316666,6.61665 l 0.67533,-0.39109 c -2.097522,-3.62386 -5.343066,-6.89858 -9.973755,-7.0058 -4.576897,-0.37203 -9.145919,0.35422 -12.917778,0.0511 z"
       id="path858"
       inkscape:connector-curvature="0"
       sodipodi:nodetypes="ccccccc" />
    <path
       style="fill:#7b7b7b;stroke:none;stroke-width:0.05171351;stroke-linecap:butt;stroke-linejoin:miter;stroke-miterlimit:4;stroke-dasharray:none;stroke-opacity:1;fill-opacity:1"
       d="m 18.43778,272.0125 -0.912737,0.65195 3.155463,0.39118 1.251753,-0.44333 -1.669004,-0.18255 0.625876,-0.78235 -1.642926,0.62588 z"
       id="path4671"
       inkscape:connector-curvature="0" />
    <path
       style="fill:#b1b1b1;stroke:#76adff;stroke-width:0.58543605;stroke-linecap:round;stroke-linejoin:miter;stroke-miterlimit:4;stroke-dasharray:none;stroke-opacity:1;fill-opacity:1"
       d="M 23.888124,295.56111 23.210092,275.27227"
       id="path866"
       inkscape:connector-curvature="0" />
  </g>
</svg>
